<svg id="time-circle" width="18" height="18" viewBox="0 0 18 18" fill="none" xmlns="http://www.w3.org/2000/svg">
<path fill-rule="evenodd" clip-rule="evenodd" d="M9 18C4.032 18 0 13.977 0 9C0 4.032 4.032 0 9 0C13.977 0 18 4.032 18 9C18 13.977 13.977 18 9 18ZM11.8709 12.339C11.9789 12.402 12.0959 12.438 12.2219 12.438C12.4469 12.438 12.6719 12.321 12.7979 12.105C12.9869 11.79 12.8879 11.376 12.5639 11.178L9.35991 9.27V5.112C9.35991 4.734 9.05391 4.437 8.68491 4.437C8.31591 4.437 8.00991 4.734 8.00991 5.112V9.657C8.00991 9.891 8.13591 10.107 8.34291 10.233L11.8709 12.339Z" fill="#3FB195"/>
</svg>
