<svg width="71" height="70" viewBox="0 0 71 70" fill="none" xmlns="http://www.w3.org/2000/svg">
<rect x="0.5" width="70" height="70" rx="35" fill="#3FB195"/>
<path d="M24.114 16L18.427 22.392H29.754L24.114 16ZM20.401 28.784H27.78L29.143 23.332H27.075L26.464 26.152C26.276 26.857 25.9 26.857 25.336 26.857H22.704C22.187 26.857 21.764 26.857 21.623 26.152C21.435 25.447 20.965 23.332 20.965 23.332H19.038L20.401 28.784ZM54.147 44.435H52.69V43.495H51.75V37.573H31.775V43.495H30.835V44.435H27.357V29.724H20.824V44.435H18.145L16.5 53.6H32.997L34.172 44.905H38.402L39.342 53.6H55.51L54.147 44.435ZM24.96 33.625H23.221V31.604H24.96V33.625ZM34.172 31.839V32.779H49.118V31.839H34.172ZM52.737 35.787L49.917 33.719H33.467L30.835 35.787V36.633H52.737V35.787ZM24.96 38.278H23.221V36.257H24.96V38.278ZM36.804 43.495H33.373V40.252C33.373 39.594 34.125 39.077 35.065 39.077C36.005 39.077 36.804 39.594 36.804 40.252V43.495ZM41.316 43.495H37.932V40.252C37.932 39.594 38.684 39.077 39.624 39.077C40.564 39.077 41.316 39.594 41.316 40.252V43.495ZM45.875 43.495H42.491V40.252C42.491 39.594 43.243 39.077 44.183 39.077C45.123 39.077 45.875 39.594 45.875 40.252V43.495ZM50.246 43.495H46.862V40.252C46.862 39.594 47.614 39.077 48.554 39.077C49.494 39.077 50.246 39.594 50.246 40.252V43.495ZM24.96 44.435H23.221V41.38H24.96V44.435Z" fill="white"/>
</svg>
