<svg viewBox="0 0 24 24" xmlns="http://www.w3.org/2000/svg" >
<defs>
    <style>
      .sprite { 
        display: none; 
        }
      .sprite:target { 
        display: inline;
        }
    </style>
  </defs>
  <g fill="none" class="sprite" xmlns="http://www.w3.org/2000/svg"  id="arrow-down">
    <path fill-rule="evenodd" clip-rule="evenodd" d="M12 21.9999C6.48 21.9999 2 17.5099 2 11.9999C2 6.47988 6.48 1.99988 12 1.99988C17.51 1.99988 22 6.47988 22 11.9999C22 17.5099 17.51 21.9999 12 21.9999ZM16 10.0199C15.7 9.72988 15.23 9.72988 14.94 10.0299L12 12.9799L9.06 10.0299C8.77 9.72988 8.29 9.72988 8 10.0199C7.7 10.3199 7.7 10.7899 8 11.0799L11.47 14.5699C11.61 14.7099 11.8 14.7899 12 14.7899C12.2 14.7899 12.39 14.7099 12.53 14.5699L16 11.0799C16.15 10.9399 16.22 10.7499 16.22 10.5599C16.22 10.3599 16.15 10.1699 16 10.0199Z" fill="#3FB195"></path>
  </g>
  <g fill="none" class="sprite" xmlns="http://www.w3.org/2000/svg"  id="arrow-left">
    <path d="M14.0977 19.1076C13.7794 19.1076 13.4594 18.986 13.2161 18.7426L7.40439 12.9593C7.16939 12.7243 7.03772 12.406 7.03772 12.0726C7.03772 11.741 7.16939 11.4226 7.40439 11.1876L13.2161 5.40096C13.7044 4.91429 14.4944 4.91429 14.9827 5.40429C15.4694 5.89429 15.4677 6.68596 14.9794 7.17263L10.0577 12.0726L14.9794 16.9726C15.4677 17.4593 15.4694 18.2493 14.9827 18.7393C14.7394 18.986 14.4177 19.1076 14.0977 19.1076Z" fill="currentColor"></path>
  </g>
  <g fill="none" class="sprite" xmlns="http://www.w3.org/2000/svg"  id="phone">
    <path opacity="0.4" d="M14.4183 5.48988C13.9422 5.40194 13.505 5.70573 13.4144 6.17041C13.3238 6.63509 13.6285 7.08878 14.0916 7.17972C15.4859 7.45153 16.5624 8.53079 16.8353 9.92983V9.93083C16.913 10.3336 17.2675 10.6264 17.6759 10.6264C17.7306 10.6264 17.7854 10.6214 17.8412 10.6114C18.3043 10.5184 18.609 10.0657 18.5184 9.60006C18.1111 7.51049 16.5027 5.8966 14.4183 5.48988Z" fill="#3FB195"></path>
    <path opacity="0.4" d="M14.3558 2.00793C14.1328 1.97595 13.9087 2.04191 13.7304 2.18381C13.5472 2.32771 13.4326 2.53557 13.4078 2.76841C13.355 3.23908 13.6946 3.66479 14.1646 3.71776C17.4063 4.07951 19.9259 6.60477 20.2904 9.85654C20.3392 10.2922 20.7047 10.621 21.1409 10.621C21.1738 10.621 21.2057 10.619 21.2385 10.615C21.4666 10.59 21.6698 10.4771 21.8132 10.2972C21.9556 10.1174 22.0203 9.89351 21.9944 9.66467C21.5403 5.60746 18.4002 2.45862 14.3558 2.00793Z" fill="#3FB195"></path>
    <path fill-rule="evenodd" clip-rule="evenodd" d="M11.5564 12.4475C15.3355 16.2256 16.1928 11.8548 18.599 14.2593C20.9188 16.5784 22.2521 17.043 19.313 19.9813C18.9448 20.2772 16.6057 23.8367 8.38541 15.6186C0.164073 7.39958 3.7215 5.05811 4.01745 4.69006C6.96366 1.74364 7.42029 3.08468 9.74004 5.40379C12.1462 7.80931 7.77725 8.66945 11.5564 12.4475Z" fill="#3FB195"></path>
  </g>
  <g fill="none" class="sprite"  xmlns="http://www.w3.org/2000/svg"  id="setting-adjust">
    <path d="M22.5 6H19.425C19.05 4.275 17.55 3 15.75 3C13.95 3 12.45 4.275 12.075 6H1.5V7.5H12.075C12.45 9.225 13.95 10.5 15.75 10.5C17.55 10.5 19.05 9.225 19.425 7.5H22.5V6ZM15.75 9C14.475 9 13.5 8.025 13.5 6.75C13.5 5.475 14.475 4.5 15.75 4.5C17.025 4.5 18 5.475 18 6.75C18 8.025 17.025 9 15.75 9Z" fill="#3FB195"></path>
    <path d="M1.5 18H4.575C4.95 19.725 6.45 21 8.25 21C10.05 21 11.55 19.725 11.925 18H22.5V16.5H11.925C11.55 14.775 10.05 13.5 8.25 13.5C6.45 13.5 4.95 14.775 4.575 16.5H1.5V18ZM8.25 15C9.525 15 10.5 15.975 10.5 17.25C10.5 18.525 9.525 19.5 8.25 19.5C6.975 19.5 6 18.525 6 17.25C6 15.975 6.975 15 8.25 15Z" fill="#3FB195"></path>
  </g>
  <g fill="none" class="sprite"  xmlns="http://www.w3.org/2000/svg"  id="share">
    <path d="M17.9359 15.9494C17.5431 15.9508 17.1547 16.0317 16.7939 16.187C16.4332 16.3424 16.1075 16.569 15.8365 16.8533L8.72737 13.2958C8.90225 12.7656 8.90225 12.1932 8.72737 11.6629L15.8481 8.0413C16.3582 8.57878 17.0498 8.90742 17.7887 8.96335C18.5275 9.01928 19.2608 8.79849 19.8459 8.34391C20.4311 7.88932 20.8263 7.23341 20.9548 6.50367C21.0832 5.77393 20.9358 5.02248 20.5411 4.39539C20.1464 3.76829 19.5326 3.31035 18.8191 3.11058C18.1056 2.9108 17.3433 2.98346 16.6803 3.31443C16.0174 3.6454 15.5012 4.21104 15.232 4.9014C14.9629 5.59177 14.9601 6.35754 15.2241 7.04987L8.17334 10.6365C7.79254 10.1708 7.27703 9.83425 6.69747 9.67302C6.1179 9.51179 5.50266 9.53375 4.93607 9.73591C4.36948 9.93806 3.87928 10.3105 3.53267 10.8022C3.18606 11.2939 3 11.8807 3 12.4823C3 13.0839 3.18606 13.6707 3.53267 14.1624C3.87928 14.6541 4.36948 15.0265 4.93607 15.2287C5.50266 15.4308 6.1179 15.4528 6.69747 15.2916C7.27703 15.1303 7.79254 14.7938 8.17334 14.3281L15.2066 17.868C15.0878 18.1871 15.0266 18.5248 15.0258 18.8653C15.0258 19.442 15.1968 20.0058 15.5172 20.4853C15.8377 20.9648 16.2931 21.3386 16.8259 21.5593C17.3587 21.78 17.945 21.8377 18.5106 21.7252C19.0763 21.6127 19.5959 21.335 20.0037 20.9272C20.4115 20.5194 20.6892 19.9998 20.8017 19.4342C20.9142 18.8685 20.8565 18.2822 20.6358 17.7494C20.4151 17.2166 20.0413 16.7612 19.5618 16.4408C19.0823 16.1204 18.5185 15.9494 17.9418 15.9494H17.9359Z" fill="currentColor"></path>
  </g>
  <g fill="none"  class="sprite" xmlns="http://www.w3.org/2000/svg"  id="printer">
    <path d="M18 17.5V18.75C18 19.3467 17.7629 19.919 17.341 20.341C16.919 20.7629 16.3467 21 15.75 21H8.25C7.65326 21 7.08097 20.7629 6.65901 20.341C6.23705 19.919 6 19.3467 6 18.75V17.499L4.25 17.5C3.65326 17.5 3.08097 17.2629 2.65901 16.841C2.23705 16.419 2 15.8467 2 15.25V9.254C2 8.39205 2.34241 7.5654 2.9519 6.9559C3.5614 6.34641 4.38805 6.004 5.25 6.004L5.999 6.003L6 5.25C6 4.65326 6.23705 4.08097 6.65901 3.65901C7.08097 3.23705 7.65326 3 8.25 3H15.752C16.3487 3 16.921 3.23705 17.343 3.65901C17.7649 4.08097 18.002 4.65326 18.002 5.25V6.003H18.752C19.614 6.00353 20.4405 6.34605 21.0502 6.95537C21.6599 7.56469 22.0029 8.39103 22.004 9.253L22.007 15.25C22.0071 15.5453 21.9491 15.8378 21.8362 16.1107C21.7233 16.3836 21.5577 16.6316 21.349 16.8406C21.1402 17.0495 20.8924 17.2153 20.6196 17.3284C20.3468 17.4416 20.0543 17.4999 19.759 17.5H18ZM15.75 13.5H8.25C8.05109 13.5 7.86032 13.579 7.71967 13.7197C7.57902 13.8603 7.5 14.0511 7.5 14.25V18.75C7.5 19.164 7.836 19.5 8.25 19.5H15.75C15.9489 19.5 16.1397 19.421 16.2803 19.2803C16.421 19.1397 16.5 18.9489 16.5 18.75V14.25C16.5 14.0511 16.421 13.8603 16.2803 13.7197C16.1397 13.579 15.9489 13.5 15.75 13.5ZM15.752 4.5H8.25C8.05109 4.5 7.86032 4.57902 7.71967 4.71967C7.57902 4.86032 7.5 5.05109 7.5 5.25L7.499 6.003H16.502V5.25C16.502 5.05109 16.423 4.86032 16.2823 4.71967C16.1417 4.57902 15.9509 4.5 15.752 4.5Z" fill="currentColor"></path>
  </g>
  <g fill="none" class="sprite" xmlns="http://www.w3.org/2000/svg"  id="sort">
    <path d="M3 18H9V16H3V18ZM3 6V8H21V6H3ZM3 13H15V11H3V13Z" fill="#3FB195"></path>
  </g>
  <g fill="none" class="sprite" xmlns="http://www.w3.org/2000/svg"  id="location">
    <path fill-rule="evenodd" clip-rule="evenodd" d="M8.53162 2.93677C10.7165 1.66727 13.402 1.68946 15.5664 2.99489C17.7095 4.32691 19.012 6.70418 18.9998 9.26144C18.95 11.8019 17.5533 14.19 15.8075 16.0361C14.7998 17.1064 13.6726 18.0528 12.4488 18.856C12.3228 18.9289 12.1848 18.9777 12.0415 19C11.9036 18.9941 11.7693 18.9534 11.6508 18.8814C9.78243 17.6746 8.14334 16.134 6.81233 14.334C5.69859 12.8314 5.06584 11.016 5 9.13442C4.99856 6.57225 6.34677 4.20627 8.53162 2.93677ZM9.79403 10.1948C10.1616 11.1008 11.029 11.6918 11.9915 11.6918C12.622 11.6964 13.2281 11.4438 13.6747 10.9905C14.1213 10.5371 14.3713 9.92063 14.3691 9.27838C14.3725 8.29803 13.7953 7.41231 12.9071 7.03477C12.0189 6.65723 10.9949 6.86234 10.3132 7.55434C9.63146 8.24634 9.42651 9.28872 9.79403 10.1948Z" fill="#3FB195"></path>
    <ellipse opacity="0.4" cx="12" cy="21" rx="5" ry="1" fill="#3FB195"></ellipse>
  </g>
  <g fill="none" class="sprite" xmlns="http://www.w3.org/2000/svg"  id="location-purple">
    <path fill-rule="evenodd" clip-rule="evenodd" d="M8.53162 2.93677C10.7165 1.66727 13.402 1.68946 15.5664 2.99489C17.7095 4.32691 19.012 6.70418 18.9998 9.26144C18.95 11.8019 17.5533 14.19 15.8075 16.0361C14.7998 17.1064 13.6726 18.0528 12.4488 18.856C12.3228 18.9289 12.1848 18.9777 12.0415 19C11.9036 18.9941 11.7693 18.9534 11.6508 18.8814C9.78243 17.6746 8.14334 16.134 6.81233 14.334C5.69859 12.8314 5.06584 11.016 5 9.13442C4.99856 6.57225 6.34677 4.20627 8.53162 2.93677ZM9.79403 10.1948C10.1616 11.1008 11.029 11.6918 11.9915 11.6918C12.622 11.6964 13.2281 11.4438 13.6747 10.9905C14.1213 10.5371 14.3713 9.92063 14.3691 9.27838C14.3725 8.29803 13.7953 7.41231 12.9071 7.03477C12.0189 6.65723 10.9949 6.86234 10.3132 7.55434C9.63146 8.24634 9.42651 9.28872 9.79403 10.1948Z" fill="#C499FF"></path>
    <ellipse opacity="0.4" cx="12" cy="21" rx="5" ry="1" fill="#C499FF"></ellipse>
  </g>
  <g fill="none" class="sprite" xmlns="http://www.w3.org/2000/svg"  id="clock">
    <path fill-rule="evenodd" clip-rule="evenodd" d="M12 21C7.032 21 3 16.977 3 12C3 7.032 7.032 3 12 3C16.977 3 21 7.032 21 12C21 16.977 16.977 21 12 21ZM14.8708 15.339C14.9788 15.402 15.0958 15.438 15.2218 15.438C15.4468 15.438 15.6718 15.321 15.7978 15.105C15.9868 14.79 15.8878 14.376 15.5638 14.178L12.3598 12.27V8.11201C12.3598 7.73401 12.0538 7.43701 11.6848 7.43701C11.3158 7.43701 11.0098 7.73401 11.0098 8.11201V12.657C11.0098 12.891 11.1358 13.107 11.3428 13.233L14.8708 15.339Z" fill="#3FB195"></path>
  </g>
</svg>