<svg id = "arrow-down" width="20" height="21" viewBox="0 0 20 21" fill="none" xmlns="http://www.w3.org/2000/svg">
<path fill-rule="evenodd" clip-rule="evenodd" d="M10 20.4999C4.48 20.4999 0 16.0099 0 10.4999C0 4.97991 4.48 0.499908 10 0.499908C15.51 0.499908 20 4.97991 20 10.4999C20 16.0099 15.51 20.4999 10 20.4999ZM14 8.51991C13.7 8.22991 13.23 8.22991 12.94 8.52991L10 11.4799L7.06 8.52991C6.77 8.22991 6.29 8.22991 6 8.51991C5.7 8.81991 5.7 9.28991 6 9.57991L9.47 13.0699C9.61 13.2099 9.8 13.2899 10 13.2899C10.2 13.2899 10.39 13.2099 10.53 13.0699L14 9.57991C14.15 9.43991 14.22 9.24991 14.22 9.05991C14.22 8.85991 14.15 8.66991 14 8.51991Z" fill="#3FB195"/>
</svg>
