<svg width="71" height="70" viewBox="0 0 71 70" fill="none" xmlns="http://www.w3.org/2000/svg">
<rect x="0.5" width="70" height="70" rx="35" fill="#8FCA6B"/>
<path d="M35.5 20.6415C30.471 20.6415 26.429 24.5895 26.429 30.0415C26.429 34.2715 29.531 39.1595 32.492 42.6375L32.962 45.3165L33.197 49.3585H37.803L38.038 45.3165L38.508 42.6375C41.469 39.1595 44.571 34.2715 44.571 30.0415C44.571 24.5895 40.529 20.6415 35.5 20.6415ZM35.5 21.5815C36.863 22.9915 37.521 26.6575 37.521 30.0415C37.521 33.5665 36.722 38.5015 36.017 41.6975H34.983C34.278 38.5015 33.479 33.5665 33.479 30.0415C33.479 26.6575 34.137 22.9915 35.5 21.5815ZM27.557 30.0415C27.557 26.1405 29.719 22.9445 33.197 21.8165C31.364 23.5085 30.142 25.9525 30.142 30.0415C30.142 34.1775 31.928 38.1255 33.62 41.6975H32.821C30.565 38.5485 27.557 34.0835 27.557 30.0415ZM38.179 41.6975H37.38C39.072 38.1255 40.858 34.1775 40.858 30.0415C40.858 25.9525 39.636 23.5085 37.803 21.8165C41.281 22.9445 43.443 26.1405 43.443 30.0415C43.443 34.0835 40.435 38.5485 38.179 41.6975ZM37.098 45.3165H33.902L33.432 42.6375H37.568L37.098 45.3165Z" fill="white"/>
</svg>
