<svg width="71" height="70" viewBox="0 0 71 70" fill="none" xmlns="http://www.w3.org/2000/svg">
<rect x="0.5" width="70" height="70" rx="35" fill="#FD975E"/>
<path d="M44.6884 28.608H39.7064L42.3854 16.529L40.8344 16.2L38.1084 28.608H26.3584C26.1234 28.608 25.8884 28.796 25.8884 29.078C25.8884 29.313 26.1234 29.548 26.3584 29.548H27.2044L27.3924 35.893L28.2854 38.995L28.8964 53.377C28.8964 53.612 29.1314 53.8 29.3664 53.8H41.7274C41.9624 53.8 42.1974 53.612 42.1974 53.377L42.8084 38.995L43.6544 35.893L43.9364 29.548H44.6884C44.9234 29.548 45.1114 29.313 45.1114 29.078C45.1114 28.796 44.9234 28.608 44.6884 28.608ZM37.8734 29.548L36.8864 34.201C36.3224 34.154 36.0404 33.966 35.7114 33.825C35.2884 33.637 34.8654 33.402 33.9724 33.402C33.0794 33.402 32.6094 33.637 32.2334 33.825C31.9044 34.013 31.5754 34.201 30.8704 34.201C30.2124 34.201 29.8834 34.013 29.5544 33.825C29.2254 33.684 28.8494 33.496 28.2854 33.449L28.1444 29.548H37.8734ZM42.8084 34.154C42.4324 34.107 42.1974 33.966 41.9624 33.825C41.5394 33.637 41.0694 33.402 40.1764 33.402C39.4244 33.402 39.0014 33.59 38.5784 33.778L39.5184 29.548H42.9494L42.8084 34.154ZM41.8684 38.619L41.2574 52.86H29.8364L29.2254 38.619L28.3324 35.517L28.2854 34.389C28.6614 34.436 28.8964 34.53 29.1314 34.671C29.5544 34.906 29.9774 35.047 30.8704 35.047C31.8104 35.047 32.2334 34.906 32.6094 34.671C32.9854 34.483 33.3144 34.342 33.9724 34.342C34.6774 34.342 34.9594 34.483 35.3354 34.671C35.7584 34.906 36.1814 35.047 37.1214 35.047C37.9674 35.047 38.4374 34.906 38.8604 34.671C39.1894 34.483 39.5184 34.342 40.1764 34.342C40.8344 34.342 41.1634 34.483 41.5394 34.671C41.8684 34.859 42.1974 35 42.7614 35.047V35.517L41.8684 38.619ZM31.8574 44.4C32.6094 44.4 33.2204 43.789 33.2204 43.037C33.2204 42.285 32.6094 41.721 31.8574 41.721C31.1524 41.721 30.4944 42.285 30.4944 43.037C30.4944 43.789 31.1524 44.4 31.8574 44.4ZM39.0014 42.238C38.2024 42.238 37.6384 42.802 37.6384 43.554C37.6384 44.306 38.2024 44.964 39.0014 44.964C39.7534 44.964 40.3174 44.306 40.3174 43.554C40.3174 42.802 39.7534 42.238 39.0014 42.238ZM35.1944 46.609C35.9934 46.609 36.5574 45.998 36.5574 45.246C36.5574 44.588 35.9934 43.93 35.1944 43.93C34.4894 43.93 33.8784 44.588 33.8784 45.246C33.8784 45.998 34.4894 46.609 35.1944 46.609ZM31.7634 48.301C32.4684 48.301 33.1264 47.69 33.1264 46.985C33.1264 46.186 32.4684 45.575 31.7634 45.575C31.0114 45.575 30.4004 46.186 30.4004 46.985C30.4004 47.69 31.0114 48.301 31.7634 48.301ZM38.7194 48.489C39.5184 48.489 40.1294 47.878 40.1294 47.126C40.1294 46.374 39.5184 45.763 38.7194 45.763C38.0144 45.763 37.4034 46.374 37.4034 47.126C37.4034 47.878 38.0144 48.489 38.7194 48.489ZM35.3824 47.737C34.6774 47.737 34.0664 48.301 34.0664 49.053C34.0664 49.805 34.6774 50.369 35.3824 50.369C36.1344 50.369 36.7454 49.805 36.7454 49.053C36.7454 48.301 36.1344 47.737 35.3824 47.737ZM32.1394 49.476C31.4344 49.476 30.7764 50.134 30.7764 50.839C30.7764 51.591 31.4344 52.202 32.1394 52.202C32.8914 52.202 33.5024 51.591 33.5024 50.839C33.5024 50.134 32.8914 49.476 32.1394 49.476ZM39.0014 49.523C38.2024 49.523 37.6384 50.134 37.6384 50.839C37.6384 51.591 38.2024 52.202 39.0014 52.202C39.7534 52.202 40.3174 51.591 40.3174 50.839C40.3174 50.134 39.7534 49.523 39.0014 49.523Z" fill="#FAFAFA"/>
</svg>
