<svg width="71" height="70" viewBox="0 0 71 70" fill="none" xmlns="http://www.w3.org/2000/svg">
<rect x="0.5" width="70" height="70" rx="35" fill="#64C5E3"/>
<path d="M47.4667 28.3025C46.7147 27.0335 44.1767 23.8375 43.2837 22.8035C42.8607 22.1925 41.9207 21.4875 41.1687 21.3465C38.3017 20.7355 38.1607 20.6415 37.1267 20.6415C35.3407 20.6415 33.6487 21.1585 33.3197 21.2055L27.5387 22.6155C26.7867 22.8035 25.8937 23.4615 25.6587 24.0725L23.2147 28.8665C22.9327 29.4775 22.8387 30.6995 23.1207 31.4045L29.1367 46.8675C29.6067 48.1365 30.5467 49.3585 35.0587 49.3585C39.5707 49.3585 43.1897 48.1835 43.6127 46.8205L47.9837 30.8405C48.1247 30.0885 48.0777 29.2425 47.4667 28.3025ZM35.3877 48.4185C33.1317 48.4185 30.8287 47.8075 30.8287 46.9615C30.8287 46.3505 33.8367 44.9405 37.4557 44.9405C40.4637 44.9405 42.2497 46.1155 42.2497 46.5385C42.2497 47.3375 38.8187 48.4185 35.3877 48.4185Z" fill="white"/>
</svg>
