<svg width="71" height="70" viewBox="0 0 71 70" fill="none" xmlns="http://www.w3.org/2000/svg">
<rect x="0.5" width="70" height="70" rx="35" fill="#FF9999"/>
<path d="M20.3424 29.783L20.5304 30.488C20.5304 30.488 22.4574 31.287 25.0894 31.287H45.8634C48.4484 31.287 50.3754 30.488 50.3754 30.488L50.6104 29.783C46.5214 30.488 45.4874 26.023 45.4404 25.882L46.3334 23.25H45.4404C44.5004 23.72 42.4324 25.647 35.4764 25.647C28.5204 25.647 26.4524 23.72 25.5124 23.25H24.5724L25.4654 25.882C25.4654 26.023 24.4314 30.488 20.3424 29.783ZM35.4764 25.13C35.8994 25.13 36.2754 24.754 36.2754 24.284C36.2754 23.861 35.8994 23.485 35.4764 23.485C35.0064 23.485 34.6304 23.861 34.6304 24.284C34.6304 24.754 35.0064 25.13 35.4764 25.13ZM55.8744 31.146C52.7254 31.616 52.5844 28.843 52.5844 28.514L52.9134 26.775H51.9734C51.3624 27.574 51.8794 27.856 47.5554 27.997C48.1194 28.608 48.8714 28.89 49.8114 28.89C50.5164 28.89 51.1274 28.702 51.4094 28.984C51.5504 29.125 51.6914 29.595 51.3624 30.817C51.3154 31.005 51.2214 31.099 51.0334 31.193C50.9394 31.24 48.8714 32.039 46.8974 32.18V33.214H53.5244C54.8404 33.214 55.8744 32.086 55.8744 32.086V31.146ZM15.1254 31.193V32.133C15.1254 32.133 16.1594 33.261 17.4754 33.261H24.1024V32.227C22.1284 32.086 20.0604 31.287 19.9664 31.24C19.7784 31.146 19.6844 31.052 19.6374 30.864C19.3084 29.642 19.4494 29.172 19.5904 29.031C19.8724 28.749 20.4834 28.937 21.1884 28.937C22.1284 28.937 22.8804 28.655 23.4444 28.044C19.1204 27.903 19.6374 27.621 19.0264 26.822H18.0864L18.4154 28.561C18.4154 28.89 18.2744 31.663 15.1254 31.193ZM54.4644 34.906H62.9244V33.966C61.3264 32.838 59.5404 30.629 59.5404 30.629H56.4854C56.5794 30.676 56.8144 30.958 56.8144 31.522V32.086C56.8144 32.321 56.7674 32.603 56.6264 32.744C56.4384 32.932 55.7334 33.731 54.4644 33.966V34.906ZM16.5354 34.953V34.013C15.2664 33.778 14.5614 32.979 14.3734 32.791C14.2324 32.65 14.1854 32.368 14.1854 32.133V31.569C14.1854 31.005 14.4204 30.723 14.5144 30.676H11.4594C11.4594 30.676 9.67344 32.885 8.07544 34.013V34.953H16.5354ZM45.8634 43.93V32.227H25.0424V43.93H27.0164V35.376H30.0714V43.93H33.4554V35.376H37.4504V43.93H40.8814V35.376H43.9364V43.93H45.8634ZM38.6254 34.436H32.3274V33.167H38.6254V34.436ZM24.1024 43.93V34.201H17.4754V43.93H19.4024V35.846H21.6584V43.93H24.1024ZM53.4304 43.93V34.201H46.8034V43.93H49.3414V35.846H51.5034V43.93H53.4304ZM16.5354 43.93V35.893H10.0494V43.93H16.5354ZM54.3704 43.93H60.8564V35.893H54.3704V43.93ZM10.0494 44.87V46.75H60.8564V44.87H10.0494Z" fill="white"/>
</svg>
