<svg width="71" height="70" viewBox="0 0 71 70" fill="none" xmlns="http://www.w3.org/2000/svg">
<rect x="0.5" width="70" height="70" rx="35" fill="#81A4FF"/>
<path d="M34.8179 51.3326C46.0039 51.3326 42.6199 48.3716 41.7269 46.5386C41.2569 45.5046 40.8339 44.3766 40.5519 43.2486C40.3639 42.4496 40.1759 41.6506 40.2699 40.8516C40.4579 38.9246 41.3979 36.2456 42.6669 35.5876C42.9959 35.3996 43.5129 35.3996 43.7949 35.2116C44.4529 34.7886 44.1709 33.7546 44.5469 33.1436C44.6409 32.9556 44.2649 31.8276 44.8289 31.0286C45.1579 30.6526 45.0169 30.0416 44.5469 29.7596C44.1709 29.4306 44.0769 28.8666 43.7949 28.4436C43.2309 27.6916 43.1369 26.8456 42.8549 26.0466C42.7609 25.5766 42.6669 25.1066 42.3379 24.8246C42.1499 24.6836 41.8209 24.5426 41.5859 24.4486C40.8339 24.1196 39.7059 23.7436 39.6119 22.8036C39.6119 22.7096 39.3769 22.5216 39.2829 22.4746C39.0949 22.3806 37.7319 22.3806 37.5439 22.4746C37.2149 22.1456 35.6639 22.1456 35.6169 21.4876C35.6169 21.1586 35.1939 20.9236 35.0059 20.7826C34.1129 20.3126 33.2669 20.8296 33.3609 19.8896C33.4549 19.4666 33.4549 19.2786 33.2199 18.9496C32.7969 18.4326 32.3739 18.7146 32.0919 19.0906C31.6689 19.7486 31.1989 20.3596 30.8229 21.0176C30.2119 22.0516 29.7419 22.9916 29.7889 24.1666C29.7889 24.9656 29.7419 25.6706 30.5879 26.0936C31.0579 26.3756 31.4339 26.7516 31.3869 27.4566C31.3869 27.5976 31.4809 27.6916 31.5749 27.8326C32.8909 29.3836 32.4209 29.4776 33.7839 30.3706C34.1129 30.5586 34.5829 30.6526 34.7709 31.0286C35.0999 31.5926 35.0999 32.2036 35.5229 32.7206C35.7579 33.0026 35.8049 33.3316 36.0399 33.6136C36.3219 33.8486 36.6039 34.2246 36.6509 34.6476C36.6979 34.9296 36.5099 35.2116 36.5099 35.4936C36.5099 35.5876 36.6039 35.7756 36.6039 35.8226C36.6039 35.9636 36.4629 36.0576 36.4629 36.1516C36.4629 36.4806 36.6509 36.5276 36.6509 37.0446C36.6509 37.3266 36.6039 37.5616 36.6039 37.7496C36.5569 38.1256 35.8989 39.7706 34.6769 41.3216C33.3609 43.0606 32.9849 43.4366 32.3269 44.2356C31.4809 45.2226 30.3059 45.5516 29.1779 46.0686C26.6869 47.8076 25.1359 47.9956 26.4989 49.4996C27.4389 50.5336 29.1309 50.8626 30.3999 51.0506C31.9509 51.2856 33.4079 51.3326 34.8179 51.3326Z" fill="white"/>
</svg>
