<svg width="71" height="70" viewBox="0 0 71 70" fill="none" xmlns="http://www.w3.org/2000/svg">
<rect x="0.5" width="70" height="70" rx="35" fill="#C499FF"/>
<path d="M62.7836 39.4977C61.7496 34.7977 57.5196 31.2727 52.4906 31.2727C49.9526 31.2727 47.6026 32.1657 45.7696 33.6697L43.7016 31.4607L45.0646 27.2307H46.4276C47.0386 27.2307 48.1196 26.6667 48.1196 25.7737C48.1196 24.8807 47.2736 24.1757 46.0986 24.1757C44.9236 24.1757 42.9026 25.3037 40.9756 25.3037C39.0956 25.3037 38.7196 25.9147 38.7196 26.4317C38.7196 26.9017 39.0486 27.2307 39.6596 27.2307H43.5606L39.5186 39.9677H39.1426C37.7326 39.9677 36.5106 40.9547 36.0876 42.2237C35.7586 41.9417 35.2886 41.5187 34.8186 40.7667C33.8786 39.4977 32.9856 37.8057 32.1396 36.1607C31.3406 34.7507 30.6356 33.3877 29.9306 32.3067C28.8026 30.5677 27.4396 29.3927 25.7946 28.7347C24.9016 28.4057 24.0556 28.2647 23.3976 28.2177L24.8076 22.2957C24.8546 22.1077 24.8546 21.9197 24.7606 21.7787L23.4446 19.6637H27.4866C27.9096 19.6637 28.1916 19.3347 28.1916 18.9587C28.1916 18.5827 27.9096 18.2537 27.4866 18.2537H22.3636C22.1756 18.2067 21.9876 18.2537 21.8466 18.3477C21.5176 18.5357 21.4236 18.9587 21.6116 19.3347L23.3976 22.2487L21.8466 28.5937C21.7996 28.6877 21.7996 28.7347 21.7996 28.8287L21.4706 30.1917C20.5306 29.9567 19.5906 29.8627 18.6036 29.8627C18.2276 29.8627 17.8986 30.1447 17.8986 30.5677C17.8986 30.9437 18.2276 31.2727 18.6036 31.2727C19.4496 31.2727 20.2956 31.3667 21.0946 31.5547L20.9536 32.2127C20.0606 31.9777 19.1676 31.8367 18.1806 31.8367C12.6816 31.8367 8.21655 36.3017 8.21655 41.8007C8.21655 47.2997 12.6816 51.7647 18.1806 51.7647C23.6796 51.7647 28.1446 47.2997 28.1446 41.8007C28.1446 37.7587 25.7476 34.2807 22.2696 32.7297L22.4576 32.0247C26.0766 33.5287 28.6616 37.1007 28.6616 41.2837C28.6616 41.6597 28.9436 41.9887 29.3666 41.9887C29.7426 41.9887 30.0716 41.6597 30.0716 41.2837C30.0716 38.2287 28.8496 35.3617 26.6876 33.1997C25.5596 32.0717 24.2436 31.2257 22.7866 30.6147L23.0686 29.5807C23.7266 29.6277 24.4786 29.7217 25.2776 30.0507C26.6406 30.6147 27.7686 31.6017 28.7556 33.0587C29.4136 34.0927 30.1186 35.4557 30.8706 36.8187C32.5626 39.9677 34.1606 42.9757 35.9936 43.8217C36.0876 44.2447 36.2286 44.6207 36.4636 44.9497L33.9256 47.4877H32.5626C32.1396 47.4877 31.8576 47.8167 31.8576 48.1927C31.8576 48.6157 32.1396 48.8977 32.5626 48.8977H36.4166C36.8396 48.8977 37.1216 48.6157 37.1216 48.1927C37.1216 47.8167 36.8396 47.4877 36.4166 47.4877H35.8996L37.4506 45.9837C37.9676 46.3127 38.5316 46.5007 39.1896 46.5007C40.3646 46.5007 41.3986 45.8897 41.9626 44.9497L42.9966 44.8087C44.2656 48.8507 48.0256 51.7647 52.4906 51.7647C57.9896 51.7647 62.4546 47.2997 62.4546 41.8007C62.4546 41.0487 62.4076 40.3437 62.2196 39.6387C62.5016 39.5917 62.6896 39.5447 62.7836 39.4977ZM15.5956 27.6067C15.7366 28.3117 16.3946 28.9227 17.1466 28.9227H19.6376C20.3426 28.9227 21.0946 28.3587 21.2356 27.6067L22.2696 23.1417C22.4106 22.4367 21.9876 21.8727 21.2356 21.8727H16.1596C15.4076 21.8727 14.8906 22.4367 14.9846 23.1887L15.5956 27.6067ZM43.2316 32.9647L44.7826 34.6097C43.5136 35.9727 42.6206 37.6177 42.1976 39.4037C42.3386 39.5917 42.4796 39.7327 42.7146 39.8737C42.7146 39.9207 42.7146 39.9207 42.6676 39.9677H40.9756L43.2316 32.9647ZM17.7106 39.5917L17.4756 39.6857L14.5616 34.5627C15.5016 34.0927 16.5826 33.8107 17.7106 33.7167V39.5917ZM20.0606 35.8787L18.6506 39.1687V33.7167C19.3086 33.7637 19.9196 33.8577 20.5306 34.0457L20.0606 35.8787ZM13.7156 35.0327L16.6766 40.1557L16.5356 40.2967L11.4126 37.3827C12.0236 36.4427 12.8226 35.6437 13.7156 35.0327ZM24.9486 37.3827L19.8726 40.2967L19.7316 40.2027L20.0136 39.5917L22.6456 35.0327C23.5386 35.6437 24.3376 36.4427 24.9486 37.3827ZM54.0886 40.2497L56.2976 36.4427H56.4386C57.5196 36.4427 58.4596 36.9597 59.1646 37.6647L54.2766 40.4377C54.2296 40.3907 54.1826 40.2967 54.0886 40.2497ZM53.2896 39.7327L52.9606 39.5917V39.4977C53.1016 39.3097 53.2426 39.1217 53.3366 38.9337C53.7126 38.3227 54.1826 37.4767 54.8876 36.9597L53.2896 39.7327ZM10.9426 38.1817L16.0656 41.0957C16.0186 41.1897 16.0186 41.2837 15.9716 41.3307H10.0966C10.1906 40.2027 10.4726 39.1217 10.9426 38.1817ZM26.2646 41.3307H20.3896C20.3426 41.2837 20.3426 41.1897 20.3426 41.0957L25.4186 38.1817C25.8886 39.1217 26.2176 40.2027 26.2646 41.3307ZM54.7466 41.5657C54.6996 41.4717 54.6996 41.3777 54.6996 41.3307L59.7286 38.4167C59.8226 38.5577 59.9166 38.6987 59.9636 38.8397C60.0576 39.0277 60.1046 39.1687 60.1986 39.2627C60.4336 39.9677 60.5746 40.7667 60.5746 41.5657H54.7466ZM10.0966 42.2707H15.9716L16.0656 42.5057L10.9426 45.4197C10.4726 44.4797 10.1906 43.3987 10.0966 42.2707ZM25.4186 45.4197L20.3426 42.5057C20.3426 42.4117 20.3426 42.3647 20.3896 42.2707H26.2646C26.2176 43.3987 25.8886 44.4797 25.4186 45.4197ZM59.6346 45.6077L54.5586 42.6937C54.6056 42.5997 54.6056 42.5527 54.6526 42.5057H60.5746C60.4806 43.6337 60.1516 44.6677 59.6346 45.6077ZM11.4126 46.2657L16.5356 43.3047L16.6766 43.4927L13.7156 48.5687C12.8226 47.9577 12.0236 47.1587 11.4126 46.2657ZM22.6456 48.5687L19.6846 43.4927C19.7316 43.4457 19.7786 43.3517 19.8726 43.3047L24.9486 46.2657C24.3376 47.1587 23.5386 47.9577 22.6456 48.5687ZM56.8616 48.6157L53.9006 43.5397L54.0416 43.4457L59.1646 46.4067C58.5536 47.2997 57.7546 48.0517 56.8616 48.6157ZM45.8636 46.4067L50.3756 43.8217L50.9866 43.7277L48.1666 48.6157C47.2266 48.0517 46.4746 47.2997 45.8636 46.4067ZM17.7106 44.0097V49.8847C16.5826 49.8377 15.5016 49.5087 14.5616 49.0387L17.4756 43.9627C17.5696 43.9627 17.6166 44.0097 17.7106 44.0097ZM18.6506 44.0097C18.7446 44.0097 18.7916 43.9627 18.8856 43.9627L21.7996 49.0387C20.8596 49.5087 19.7786 49.8377 18.6506 49.8847V44.0097ZM52.0206 44.0097V49.8847C50.9396 49.8377 49.9056 49.5557 48.9656 49.0857L51.9266 43.9627C51.9736 44.0097 52.0206 44.0097 52.0206 44.0097ZM52.9606 44.0097C53.0076 44.0097 53.0546 43.9627 53.1016 43.9627L56.0156 49.0857C55.1226 49.5557 54.0886 49.8377 52.9606 49.8847V44.0097ZM47.9316 44.1507L45.3466 45.6077C45.1586 45.2787 45.0176 44.9027 44.8766 44.5267L47.9316 44.1507Z" fill="white"/>
</svg>
