<svg width="71" height="70" viewBox="0 0 71 70" fill="none" xmlns="http://www.w3.org/2000/svg">
<rect x="0.5" width="70" height="70" rx="35" fill="#C17B53"/>
<path d="M14.021 23.203H56.979C57.073 23.203 57.12 23.156 57.12 23.109V22.357C57.12 22.31 57.073 22.263 56.979 22.263C55.475 22.263 53.971 20.289 53.971 18.503C53.971 18.456 53.924 18.409 53.83 18.409H17.17C17.076 18.409 17.029 18.456 17.029 18.55C17.029 20.336 15.525 22.263 14.021 22.263C13.927 22.263 13.88 22.31 13.88 22.404V23.062C13.88 23.156 13.927 23.203 14.021 23.203ZM59.141 26.446C57.449 26.446 56.086 25.788 56.086 24.284C56.086 24.19 56.039 24.143 55.945 24.143H14.867C14.867 25.741 13.551 26.446 11.859 26.446C11.765 26.446 11.718 26.54 11.718 26.634V27.245C11.718 27.292 11.765 27.386 11.859 27.386H59.141C59.235 27.386 59.282 27.292 59.282 27.245V26.634C59.282 26.54 59.235 26.446 59.141 26.446ZM55.522 28.279H15.431C15.384 28.279 15.337 28.373 15.337 28.42V49.523C15.337 49.57 15.384 49.664 15.431 49.664H23.609V48.724H25.254V47.079H21.87V44.494C21.87 44.024 22.105 43.648 22.481 43.413V40.546H21.87V37.961C21.87 37.256 22.481 36.645 23.233 36.645C24.032 36.645 24.643 37.256 24.643 37.961V39.982C25.348 39.841 25.818 39.465 25.818 38.76V38.431H26.382V37.961C26.382 37.209 27.04 36.645 27.792 36.645C28.544 36.645 29.155 37.209 29.155 37.961V38.431H31.27V36.974H39.636V38.431H41.845V37.961C41.845 37.209 42.456 36.645 43.208 36.645C43.96 36.645 44.618 37.209 44.618 37.961V38.431H45.182V38.713C45.182 39.418 45.652 39.888 46.357 40.029V37.961C46.357 37.256 46.968 36.645 47.767 36.645C48.519 36.645 49.13 37.256 49.13 37.961V40.546H48.237V43.272C48.754 43.46 49.13 43.93 49.13 44.494V47.079H45.746V48.724H47.297V49.664H55.522C55.569 49.664 55.616 49.617 55.663 49.617V28.42C55.663 28.373 55.616 28.279 55.522 28.279ZM20.084 34.107H17.311V31.522C17.311 30.817 17.969 30.206 18.721 30.206C19.473 30.206 20.084 30.817 20.084 31.522V34.107ZM24.643 34.107H21.87V31.522C21.87 30.817 22.481 30.206 23.233 30.206C24.032 30.206 24.643 30.817 24.643 31.522V34.107ZM29.155 34.107H26.382V31.522C26.382 30.817 27.04 30.206 27.792 30.206C28.544 30.206 29.155 30.817 29.155 31.522V34.107ZM44.618 34.107H41.845V31.522C41.845 30.817 42.456 30.206 43.208 30.206C43.96 30.206 44.618 30.817 44.618 31.522V34.107ZM49.13 34.107H46.357V31.522C46.357 30.817 46.968 30.206 47.767 30.206C48.519 30.206 49.13 30.817 49.13 31.522V34.107ZM53.642 34.107H50.869V31.522C50.869 30.817 51.527 30.206 52.279 30.206C53.031 30.206 53.642 30.817 53.642 31.522V34.107ZM39.636 34.107H31.27V30.488H39.636V34.107ZM20.084 40.546H17.311V37.961C17.311 37.256 17.969 36.645 18.721 36.645C19.473 36.645 20.084 37.256 20.084 37.961V40.546ZM53.642 40.546H50.869V37.961C50.869 37.256 51.527 36.645 52.279 36.645C53.031 36.645 53.642 37.256 53.642 37.961V40.546ZM46.357 50.604V49.664H44.806V44.682H47.532V43.742C46.404 43.742 45.37 43.225 44.947 42.097H47.532V41.157C46.075 41.157 44.383 40.593 44.383 39.089H26.617C26.617 40.593 24.878 41.157 23.421 41.157V42.097H26.006C25.63 43.225 24.596 43.742 23.421 43.742V44.682H26.194V49.664H24.549V50.604H23.28V51.591H47.626V50.604H46.357ZM20.084 47.079H17.311V44.494C17.311 43.789 17.969 43.178 18.721 43.178C19.473 43.178 20.084 43.789 20.084 44.494V47.079ZM53.642 47.079H50.869V44.494C50.869 43.789 51.527 43.178 52.279 43.178C53.031 43.178 53.642 43.789 53.642 44.494V47.079ZM27.651 47.596C27.651 46.374 28.591 45.434 29.766 45.434C30.941 45.434 31.881 46.374 31.881 47.596V49.664H27.651V47.596ZM35.5 45.434C36.675 45.434 37.615 46.374 37.615 47.596V49.664H33.385V47.596C33.385 46.374 34.325 45.434 35.5 45.434ZM41.234 45.434C42.409 45.434 43.349 46.374 43.349 47.596V49.664H39.119V47.596C39.119 46.374 40.059 45.434 41.234 45.434Z" fill="white"/>
</svg>
